<?xml version="1.0" encoding="UTF-8" standalone="no"?>
<svg width="46px" height="76px" viewBox="0 0 46 76" version="1.1" xmlns="http://www.w3.org/2000/svg" xmlns:xlink="http://www.w3.org/1999/xlink">
    <!-- Generator: Sketch 39.1 (31720) - http://www.bohemiancoding.com/sketch -->
    <title>Shape</title>
    <desc>Created with Sketch.</desc>
    <defs></defs>
    <g id="Page-1" stroke="none" stroke-width="1" fill="none" fill-rule="evenodd">
        <g id="noun_62771_cc" fill="#000000">
            <path d="M43.6,39.7 L43.6,39.5 L43.6,24 C43.6,20.4 40.7,17.5 37.1,17.5 C35.7,17.5 34.4,17.9 33.4,18.7 C32.7,16 30.2,14 27.2,14 C24.2,14 21.6,16.1 20.9,18.9 C19.9,18.2 18.6,17.8 17.2,17.8 C15.9,17.8 14.7,18.2 13.7,18.9 L13.7,6.9 C13.7,3.4 10.8,0.5 7.3,0.5 C3.8,0.5 0.9,3.4 0.9,6.9 L0.9,44.8 C0.9,52.2 1.6,57.2 2.5,60.9 C3.2,63.8 4,65.8 4.7,67.6 C5.6,69.9 6.3,71.6 6.3,74 C6.3,74.8 7,75.5 7.8,75.5 L7.8,75.5 L7.8,75.5 C8.6,75.5 9.3,74.8 9.3,74 C9.3,71 8.5,68.9 7.5,66.4 C6.8,64.7 6.1,62.8 5.4,60.1 C4.6,56.7 3.9,52 3.9,45.1 L3.9,6.8 C3.9,4.9 5.4,3.4 7.3,3.4 C9.2,3.4 10.7,4.9 10.7,6.8 L10.8,39.7 C10.8,43.3 13.7,46.2 17.3,46.2 C19.8,46.2 22,44.8 23,42.7 C24.8,43.7 27.1,44.2 30.3,44.3 L30.3,47.3 C23.2,48.5 20.3,58.4 20.2,58.8 C20,59.6 20.4,60.4 21.2,60.7 C22,60.9 22.8,60.5 23.1,59.7 C23.1,59.6 25.9,50.2 31.9,50.2 C32.7,50.2 33.4,49.5 33.4,48.7 L33.4,42.8 C33.4,42.4 33.2,42 33,41.7 C32.7,41.4 32.3,41.2 31.9,41.3 C27.6,41.3 25,40.7 23.4,39.2 C23.4,39.1 23.3,39.1 23.3,39.1 C22.2,38 21.6,36.3 21.5,34 L34.9,34 C36,34 37,34.5 37.6,35.5 L37.7,35.6 C38.9,37.1 42.1,41.5 42.1,44.7 C42.1,57.2 40,62.5 38.5,66.4 C37.5,68.9 36.7,71 36.7,74 C36.7,74.8 37.4,75.5 38.2,75.5 C39,75.5 39.7,74.8 39.7,74 C39.7,71.6 40.4,69.9 41.3,67.5 C42.9,63.4 45.1,57.8 45.1,44.7 C44.9,43 44.4,41.2 43.6,39.7 L43.6,39.7 Z M23.7,20.5 C23.7,18.6 25.3,17 27.2,17 C29.1,17 30.7,18.6 30.7,20.5 L30.7,24 L30.7,31 L23.7,31 L23.7,24.2 L23.7,20.5 L23.7,20.5 Z M17.3,43.2 C15.4,43.2 13.8,41.6 13.8,39.7 L13.8,24.2 C13.8,22.3 15.4,20.7 17.3,20.7 C19.2,20.7 20.8,22.3 20.8,24.2 L20.8,31 L19.8,31 L19.8,31 C19.4,31 19,31.2 18.7,31.4 C18.4,31.7 18.3,32.1 18.3,32.5 C18.3,36.1 19.1,38.8 20.6,40.7 C20.1,42.2 18.8,43.2 17.3,43.2 L17.3,43.2 Z M34.7,31 L33.7,31 L33.7,24 C33.7,22.1 35.3,20.5 37.2,20.5 C39.1,20.5 40.7,22.1 40.7,24 L40.7,34.7 C40.3,34.2 40.1,33.9 39.9,33.7 C38.7,32 36.8,31 34.7,31 L34.7,31 Z" id="Shape"></path>
        </g>
    </g>
</svg>